<svg width="70" height="70" viewBox="0 0 70 70" fill="none" xmlns="http://www.w3.org/2000/svg">
<path d="M10 35C10 24.491 10 19.2365 12.7144 15.5766C13.5225 14.4869 14.4869 13.5225 15.5766 12.7144C19.2365 10 24.491 10 35 10C45.509 10 50.7635 10 54.4234 12.7144C55.5131 13.5225 56.4775 14.4869 57.2856 15.5766C60 19.2365 60 24.491 60 35C60 45.509 60 50.7635 57.2856 54.4234C56.4775 55.5131 55.5131 56.4775 54.4234 57.2856C50.7635 60 45.509 60 35 60C24.491 60 19.2365 60 15.5766 57.2856C14.4869 56.4775 13.5225 55.5131 12.7144 54.4234C10 50.7635 10 45.509 10 35Z" fill="#FF5656"/>
<path d="M37.659 36.2164C38.3277 36.6009 38.3277 37.5657 37.659 37.9502L23.9984 45.805C23.3318 46.1883 22.5 45.7071 22.5 44.9381L22.5 29.2285C22.5 28.4594 23.3318 27.9782 23.9984 28.3616L37.659 36.2164Z" fill="white"/>
<g filter="url(#filter0_d_6_12)">
<path d="M33.1743 32.0497C32.5056 32.4342 32.5056 33.399 33.1743 33.7836L46.8348 41.6384C47.5015 42.0217 48.3333 41.5405 48.3333 40.7715L48.3333 25.0618C48.3333 24.2928 47.5015 23.8116 46.8348 24.1949L33.1743 32.0497Z" fill="white"/>
</g>
<defs>
<filter id="filter0_d_6_12" x="29.6727" y="22.0604" width="21.6605" height="23.7126" filterUnits="userSpaceOnUse" color-interpolation-filters="sRGB">
<feFlood flood-opacity="0" result="BackgroundImageFix"/>
<feColorMatrix in="SourceAlpha" type="matrix" values="0 0 0 0 0 0 0 0 0 0 0 0 0 0 0 0 0 0 127 0" result="hardAlpha"/>
<feOffset dy="1"/>
<feGaussianBlur stdDeviation="1.5"/>
<feComposite in2="hardAlpha" operator="out"/>
<feColorMatrix type="matrix" values="0 0 0 0 0 0 0 0 0 0 0 0 0 0 0 0 0 0 0.1 0"/>
<feBlend mode="normal" in2="BackgroundImageFix" result="effect1_dropShadow_6_12"/>
<feBlend mode="normal" in="SourceGraphic" in2="effect1_dropShadow_6_12" result="shape"/>
</filter>
</defs>
</svg>
